# xmcd
#
# Track frame offsets:
# 150
# 11920
# 25610
# 39000
# 50945
# 61340
# 70900
# 81430
# 96377
# 117535
# 140811
# 161147
# 178150
# 194770
# 206542
# 220588
# 241886
# 262209
# 290295
# 303736
#
# Disc length: 4240 seconds
#
#
# Revision: 0
# Processed by: cddbd v1.5.2PL0 Copyright (c) Steve Scherf et al.
# Submitted via: FreeRIP 2.942 
#
DISCID=3c108e14
DTITLE=Buddy Guy - Broken Hearted Blues
DYEAR=2010
DGENRE=Blues
TTITLE0=Try to Quit You Baby
TTITLE1=Sit and Cry (The Blues)
TTITLE2=This Is the End
TTITLE3=You Sure Can't Do
TTITLE4=First Time I Met the Blues
TTITLE5=Slop Around
TTITLE6=I Got My Eyes on You
TTITLE7=Broken Hearted Blues
TTITLE8=Buddy's Blues
TTITLE9=Stormy Monday
TTITLE10=Everyday I Have the Blues
TTITLE11=Woman Blues
TTITLE12=Satisfaction
TTITLE13=Messin' with the Kid
TTITLE14=No Use Cryin'
TTITLE15=Just to Be with You
TTITLE16=Junior's Shuffle
TTITLE17=Out of Sight
TTITLE18=I Hope You Come Back Home
TTITLE19=The Way You Been Treating Me
EXTD=
EXTT0=
EXTT1=
EXTT2=
EXTT3=
EXTT4=
EXTT5=
EXTT6=
EXTT7=
EXTT8=
EXTT9=
EXTT10=
EXTT11=
EXTT12=
EXTT13=
EXTT14=
EXTT15=
EXTT16=
EXTT17=
EXTT18=
EXTT19=
PLAYORDER=
